<svg viewBox="0 0 859.02 166.05" xmlns="http://www.w3.org/2000/svg" xmlns:xlink="http://www.w3.org/1999/xlink" xmlns:figma="http://www.figma.com/figma/ns"><path d="M490.68,153a15,15,0,0,1-6.56-1.52c-29.14-14.2-43.33-41.63-37.05-71.58,6.85-32.6,35.26-56.31,69.09-57.66a15,15,0,0,1,1.2,30,43.19,43.19,0,0,0-40.93,33.85c-1.62,7.71-2.83,26.91,20.84,38.44A15,15,0,0,1,490.68,153Z" style="fill:#231815"/><circle cx="340.68" cy="41.38" r="20" style="fill:#231815"/><circle cx="276.51" cy="88.5" r="20" style="fill:#231815"/><circle cx="381.64" cy="117.84" r="20" style="fill:#231815"/><path d="M312.26,159.17c-9,0-18.37-3.78-26.9-11.17A15,15,0,0,1,305,125.33c2.67,2.32,6.43,4.62,8.24,3.5,3-1.86,8.15-12,3.6-30.12A15,15,0,1,1,346,91.39c6.95,27.65.29,52.37-17,63A31.64,31.64,0,0,1,312.26,159.17Z" style="fill:#231815"/><path d="M817.94,152.74a15,15,0,0,1-6.56-1.52c-29.14-14.2-43.34-41.63-37-71.58C781.17,47,809.58,23.32,843.42,22a15,15,0,0,1,1.19,30A43.16,43.16,0,0,0,803.69,85.8c-1.62,7.72-2.83,26.92,20.83,38.45a15,15,0,0,1-6.58,28.49Z" style="fill:#231815"/><circle cx="667.93" cy="41.38" r="20" style="fill:#231815"/><circle cx="603.77" cy="88.5" r="20" style="fill:#231815"/><circle cx="708.9" cy="117.84" r="20" style="fill:#231815"/><path d="M639.52,159.17c-9,0-18.38-3.78-26.9-11.17a15,15,0,0,1,19.65-22.67c2.67,2.31,6.43,4.62,8.24,3.5,3-1.86,8.15-12,3.6-30.12a15,15,0,1,1,29.09-7.32c7,27.65.29,52.38-17,63A31.64,31.64,0,0,1,639.52,159.17Z" style="fill:#231815"/><circle cx="75.53" cy="90.54" r="75" style="fill:#231815"/><path d="M75.55,166.05a75.53,75.53,0,1,1,19.52-2.58A75.63,75.63,0,0,1,75.55,166.05Zm.1-150a74.9,74.9,0,0,0-19.4,2.57,74.5,74.5,0,1,0,91.24,52.68A74.58,74.58,0,0,0,75.65,16Z" style="fill:#231815"/><path d="M133.37,150A75,75,0,0,1,68.54,37.51a75,75,0,0,1,129.9,75A75.25,75.25,0,0,1,133.37,150Zm.11-120A45,45,0,1,0,177,63.36,45,45,0,0,0,133.48,30Z" style="fill:#231815"/></svg>
